<svg width="8" height="15" viewBox="0 0 8 15" fill="" xmlns="http://www.w3.org/2000/svg">
<path d="M7.61117 6.74248L1.82601 0.512414C1.6922 0.368204 1.51359 0.288757 1.32313 0.288757C1.13268 0.288757 0.954065 0.368204 0.820261 0.512414L0.394224 0.971109C0.116998 1.27 0.116998 1.75579 0.394224 2.05422L5.25217 7.28585L0.388834 12.5233C0.25503 12.6675 0.181152 12.8597 0.181152 13.0647C0.181152 13.27 0.25503 13.4622 0.388834 13.6065L0.814871 14.0651C0.94878 14.2093 1.12729 14.2888 1.31774 14.2888C1.5082 14.2888 1.68681 14.2093 1.82062 14.0651L7.61117 7.82935C7.74529 7.68468 7.81896 7.49153 7.81854 7.2862C7.81896 7.08007 7.74529 6.88703 7.61117 6.74248Z" fill="white"/>
</svg>
