<svg width="14" height="15" viewBox="0 0 14 15" fill="none" xmlns="http://www.w3.org/2000/svg">
<g clip-path="url(#clip0_43_2358)">
<path d="M3.00748 6.74248L8.79264 0.512414C8.92645 0.368204 9.10506 0.288757 9.29552 0.288757C9.48597 0.288757 9.66459 0.368204 9.79839 0.512414L10.2244 0.971109C10.5017 1.27 10.5017 1.75579 10.2244 2.05422L5.36648 7.28585L10.2298 12.5233C10.3636 12.6675 10.4375 12.8597 10.4375 13.0647C10.4375 13.27 10.3636 13.4622 10.2298 13.6065L9.80378 14.0651C9.66987 14.2093 9.49136 14.2888 9.30091 14.2888C9.11045 14.2888 8.93184 14.2093 8.79803 14.0651L3.00748 7.82935C2.87336 7.68468 2.79969 7.49153 2.80012 7.2862C2.79969 7.08007 2.87336 6.88703 3.00748 6.74248Z" fill="white"/>
</g>
<defs>
<clipPath id="clip0_43_2358">
<rect width="13" height="14" fill="white" transform="matrix(-1 0 0 1 13.1187 0.288757)"/>
</clipPath>
</defs>
</svg>
