<svg width="15" height="14" viewBox="0 0 15 14" fill="none" xmlns="http://www.w3.org/2000/svg">
<path d="M2.83909 12.031H11.5424C11.9354 12.031 12.3123 11.8861 12.5901 11.628C12.868 11.37 13.0241 11.0201 13.0241 10.6552V3.38602C13.0241 3.02113 12.868 2.67118 12.5901 2.41316C12.3123 2.15514 11.9354 2.01019 11.5424 2.01019H10.3758V1.87477C10.3758 1.76703 10.3297 1.6637 10.2476 1.58751C10.1656 1.51132 10.0543 1.46852 9.93826 1.46852C9.82222 1.46852 9.71094 1.51132 9.6289 1.58751C9.54685 1.6637 9.50076 1.76703 9.50076 1.87477V2.01019H4.56576V1.87477C4.56576 1.76703 4.51966 1.6637 4.43761 1.58751C4.35557 1.51132 4.24429 1.46852 4.12826 1.46852C4.01222 1.46852 3.90094 1.51132 3.8189 1.58751C3.73685 1.6637 3.69076 1.76703 3.69076 1.87477V2.01019H2.83909C2.44613 2.01019 2.06926 2.15514 1.79139 2.41316C1.51353 2.67118 1.35742 3.02113 1.35742 3.38602V10.6552C1.35742 11.0201 1.51353 11.37 1.79139 11.628C2.06926 11.8861 2.44613 12.031 2.83909 12.031ZM11.5424 11.2185H2.83909C2.68438 11.2185 2.53601 11.1615 2.42661 11.0599C2.31721 10.9583 2.25576 10.8205 2.25576 10.6769V5.48769H12.1724V10.6552C12.176 10.7319 12.162 10.8085 12.1313 10.8798C12.1005 10.9511 12.0538 11.0155 11.9943 11.0688C11.9347 11.1221 11.8636 11.163 11.7857 11.1888C11.7078 11.2146 11.6249 11.2247 11.5424 11.2185ZM2.83909 2.82269H3.69076V2.9581C3.69076 3.06585 3.73685 3.16918 3.8189 3.24537C3.90094 3.32155 4.01222 3.36435 4.12826 3.36435C4.24429 3.36435 4.35557 3.32155 4.43761 3.24537C4.51966 3.16918 4.56576 3.06585 4.56576 2.9581V2.82269H9.52409V2.9581C9.52409 3.06585 9.57018 3.16918 9.65223 3.24537C9.73428 3.32155 9.84556 3.36435 9.96159 3.36435C10.0776 3.36435 10.1889 3.32155 10.2709 3.24537C10.353 3.16918 10.3991 3.06585 10.3991 2.9581V2.82269H11.5658C11.7205 2.82269 11.8688 2.87976 11.9782 2.98134C12.0876 3.08292 12.1491 3.2207 12.1491 3.36435V4.67519H2.23242V3.38602C2.22913 3.31123 2.24257 3.23661 2.27189 3.16688C2.30122 3.09715 2.34579 3.03382 2.40279 2.98089C2.45979 2.92795 2.52799 2.88657 2.60309 2.85934C2.67818 2.83211 2.75854 2.81963 2.83909 2.82269Z" fill="#252525"/>
</svg>
