<svg width="16" height="16" viewBox="0 0 16 16" fill="none" xmlns="http://www.w3.org/2000/svg">
<g clip-path="url(#clip0_5_579)">
<path d="M13.8951 2.19205H11.8421V1.24468C11.8421 0.982733 11.6304 0.770996 11.3684 0.770996C11.1065 0.770996 10.8947 0.982733 10.8947 1.24468V2.19205H8.05263V1.24468C8.05263 0.982733 7.84042 0.770996 7.57895 0.770996C7.31747 0.770996 7.10526 0.982733 7.10526 1.24468V2.19205H4.26316V1.24468C4.26316 0.982733 4.05095 0.770996 3.78947 0.770996C3.528 0.770996 3.31579 0.982733 3.31579 1.24468V2.19205H1.26332C0.565579 2.19205 0 2.75715 0 3.45489V14.6656C0 15.3633 0.565579 15.9289 1.26332 15.9289H13.8951C14.5928 15.9289 15.1579 15.3633 15.1579 14.6656V3.45489C15.1579 2.75715 14.5928 2.19205 13.8951 2.19205ZM14.2105 14.6656C14.2105 14.8399 14.0689 14.9815 13.8951 14.9815H1.26332C1.089 14.9815 0.947368 14.8399 0.947368 14.6656V3.45489C0.947368 3.28105 1.089 3.13942 1.26332 3.13942H3.31579V4.08679C3.31579 4.34873 3.528 4.56047 3.78947 4.56047C4.05095 4.56047 4.26316 4.34873 4.26316 4.08679V3.13942H7.10526V4.08679C7.10526 4.34873 7.31747 4.56047 7.57895 4.56047C7.84042 4.56047 8.05263 4.34873 8.05263 4.08679V3.13942H10.8947V4.08679C10.8947 4.34873 11.1065 4.56047 11.3684 4.56047C11.6304 4.56047 11.8421 4.34873 11.8421 4.08679V3.13942H13.8951C14.0689 3.13942 14.2105 3.28105 14.2105 3.45489V14.6656Z" fill="#ADADAD"/>
<path d="M5.21053 6.45508H3.3158V7.87613H5.21053V6.45508Z" fill="#ADADAD"/>
<path d="M5.21053 8.82373H3.3158V10.2448H5.21053V8.82373Z" fill="#ADADAD"/>
<path d="M5.21053 11.1919H3.3158V12.6129H5.21053V11.1919Z" fill="#ADADAD"/>
<path d="M8.52633 11.1919H6.63159V12.6129H8.52633V11.1919Z" fill="#ADADAD"/>
<path d="M8.52633 8.82373H6.63159V10.2448H8.52633V8.82373Z" fill="#ADADAD"/>
<path d="M8.52633 6.45508H6.63159V7.87613H8.52633V6.45508Z" fill="#ADADAD"/>
<path d="M11.8421 11.1919H9.94739V12.6129H11.8421V11.1919Z" fill="#ADADAD"/>
<path d="M11.8421 8.82373H9.94739V10.2448H11.8421V8.82373Z" fill="#ADADAD"/>
<path d="M11.8421 6.45508H9.94739V7.87613H11.8421V6.45508Z" fill="#ADADAD"/>
</g>
<defs>
<clipPath id="clip0_5_579">
<rect width="15.1579" height="15.1579" fill="white" transform="translate(0 0.770996)"/>
</clipPath>
</defs>
</svg>
