<svg width="13" height="13" viewBox="0 0 13 13" fill="none" xmlns="http://www.w3.org/2000/svg">
<g clip-path="url(#clip0_81_603)">
<path d="M1.33409 12.852C1.21819 12.852 1.10488 12.8176 1.00851 12.7533C0.91213 12.6889 0.837012 12.5974 0.792655 12.4903C0.748298 12.3832 0.736694 12.2654 0.759312 12.1517C0.781929 12.038 0.837752 11.9336 0.919719 11.8517L11.7478 1.02354C11.8577 0.913639 12.0068 0.851898 12.1622 0.851898C12.3176 0.851898 12.4667 0.913639 12.5766 1.02354C12.6865 1.13344 12.7482 1.28249 12.7482 1.43791C12.7482 1.59333 12.6865 1.74239 12.5766 1.85229L1.74847 12.6804C1.6941 12.7349 1.62951 12.7781 1.5584 12.8075C1.48729 12.837 1.41106 12.8521 1.33409 12.852Z" fill="black"/>
<path d="M12.1622 12.852C12.0852 12.8521 12.009 12.837 11.9379 12.8075C11.8668 12.7781 11.8022 12.7349 11.7478 12.6804L0.919687 1.85229C0.809788 1.74239 0.748047 1.59333 0.748047 1.43791C0.748047 1.28249 0.809788 1.13344 0.919687 1.02354C1.02959 0.913639 1.17864 0.851898 1.33406 0.851898C1.48948 0.851898 1.63854 0.913639 1.74844 1.02354L12.5766 11.8517C12.6585 11.9336 12.7144 12.038 12.737 12.1517C12.7596 12.2654 12.748 12.3832 12.7036 12.4903C12.6593 12.5974 12.5842 12.6889 12.4878 12.7533C12.3914 12.8176 12.2781 12.852 12.1622 12.852Z" fill="black"/>
</g>
<defs>
<clipPath id="clip0_81_603">
<rect width="12" height="12" fill="white" transform="translate(0.748047 0.852112)"/>
</clipPath>
</defs>
</svg>
