<svg width="13" height="13" viewBox="0 0 13 13" fill="none" xmlns="http://www.w3.org/2000/svg">
<g clip-path="url(#clip0_43_2494)">
<path d="M11.8787 5.66219H6.98883V0.772215C6.98883 0.434883 6.71496 0.161011 6.37752 0.161011C6.04018 0.161011 5.76631 0.434883 5.76631 0.772215V5.66219H0.876341C0.539009 5.66219 0.265137 5.93606 0.265137 6.27339C0.265137 6.61083 0.539009 6.88471 0.876341 6.88471H5.76631V11.7746C5.76631 12.112 6.04018 12.3859 6.37752 12.3859C6.71496 12.3859 6.98883 12.112 6.98883 11.7746V6.88471H11.8787C12.2161 6.88471 12.49 6.61083 12.49 6.27339C12.49 5.93606 12.2161 5.66219 11.8787 5.66219Z" fill="black"/>
</g>
<defs>
<clipPath id="clip0_43_2494">
<rect width="12.2248" height="12.2248" fill="white" transform="translate(0.265137 0.161011)"/>
</clipPath>
</defs>
</svg>
