<svg width="15" height="15" viewBox="0 0 15 15" fill="none" xmlns="http://www.w3.org/2000/svg">
<g clip-path="url(#clip0_36_353)">
<path d="M1.92809 8.53879C2.70129 8.53879 3.3281 7.91198 3.3281 7.13878C3.3281 6.36558 2.70129 5.73877 1.92809 5.73877C1.15488 5.73877 0.528076 6.36558 0.528076 7.13878C0.528076 7.91198 1.15488 8.53879 1.92809 8.53879Z" fill="#252525"/>
<path d="M7.52806 8.53879C8.30127 8.53879 8.92807 7.91198 8.92807 7.13878C8.92807 6.36558 8.30127 5.73877 7.52806 5.73877C6.75486 5.73877 6.12805 6.36558 6.12805 7.13878C6.12805 7.91198 6.75486 8.53879 7.52806 8.53879Z" fill="#252525"/>
<path d="M13.128 8.53879C13.9012 8.53879 14.528 7.91198 14.528 7.13878C14.528 6.36558 13.9012 5.73877 13.128 5.73877C12.3548 5.73877 11.728 6.36558 11.728 7.13878C11.728 7.91198 12.3548 8.53879 13.128 8.53879Z" fill="#252525"/>
</g>
<defs>
<clipPath id="clip0_36_353">
<rect width="14" height="14" fill="white" transform="translate(0.528076 0.138672)"/>
</clipPath>
</defs>
</svg>
