<svg width="19" height="18" viewBox="0 0 19 18" fill="none" xmlns="http://www.w3.org/2000/svg">
<g clip-path="url(#clip0_43_2681)">
<path d="M16.02 9.60895H14.6279C14.7698 9.99743 14.8473 10.4167 14.8473 10.8536V16.1148C14.8473 16.2969 14.8156 16.4718 14.7579 16.6344H17.0593C17.919 16.6344 18.6183 15.935 18.6183 15.0754V12.2073C18.6184 10.7746 17.4527 9.60895 16.02 9.60895Z" fill="#454545"/>
<path d="M4.38921 10.8537C4.38921 10.4167 4.46673 9.99746 4.60862 9.60898H3.21657C1.78381 9.60898 0.618164 10.7746 0.618164 12.2074V15.0755C0.618164 15.9351 1.31753 16.6345 2.17721 16.6345H4.47861C4.42092 16.4718 4.38921 16.297 4.38921 16.1148V10.8537Z" fill="#454545"/>
<path d="M11.2095 8.25525H8.02711C6.59435 8.25525 5.42871 9.42089 5.42871 10.8537V16.1148C5.42871 16.4018 5.66138 16.6345 5.94839 16.6345H13.2883C13.5753 16.6345 13.8079 16.4018 13.8079 16.1148V10.8537C13.8079 9.42089 12.6423 8.25525 11.2095 8.25525Z" fill="#454545"/>
<path d="M9.61807 1.36551C7.89499 1.36551 6.49316 2.76733 6.49316 4.49045C6.49316 5.65922 7.13825 6.67998 8.09091 7.21591C8.54278 7.47009 9.06372 7.61535 9.61807 7.61535C10.1724 7.61535 10.6934 7.47009 11.1452 7.21591C12.0979 6.67998 12.743 5.65918 12.743 4.49045C12.743 2.76737 11.3412 1.36551 9.61807 1.36551Z" fill="#454545"/>
<path d="M4.13096 4.27817C2.84231 4.27817 1.79395 5.32653 1.79395 6.61518C1.79395 7.90384 2.84231 8.9522 4.13096 8.9522C4.45785 8.9522 4.76912 8.88449 5.05188 8.76278C5.54077 8.5523 5.94387 8.17971 6.1933 7.71301C6.36838 7.38546 6.46798 7.01178 6.46798 6.61518C6.46798 5.32656 5.41962 4.27817 4.13096 4.27817Z" fill="#454545"/>
<path d="M15.1056 4.27817C13.8169 4.27817 12.7686 5.32653 12.7686 6.61518C12.7686 7.01182 12.8682 7.38549 13.0432 7.71301C13.2927 8.17975 13.6958 8.55233 14.1847 8.76278C14.4674 8.88449 14.7787 8.9522 15.1056 8.9522C16.3942 8.9522 17.4426 7.90384 17.4426 6.61518C17.4426 5.32653 16.3942 4.27817 15.1056 4.27817Z" fill="#454545"/>
</g>
<defs>
<clipPath id="clip0_43_2681">
<rect width="18" height="18" fill="white" transform="translate(0.618164 3.05176e-05)"/>
</clipPath>
</defs>
</svg>
