<svg width="24" height="25" viewBox="0 0 24 25" fill="none" xmlns="http://www.w3.org/2000/svg">
<path d="M17.8499 22.9094H6.1499C3.6749 22.9094 1.6499 20.8844 1.6499 18.4094V18.2594L2.0999 6.25942C2.1749 3.78442 4.1999 1.90942 6.5999 1.90942H17.3999C19.7999 1.90942 21.8249 3.78442 21.8999 6.25942L22.3499 18.2594C22.4249 19.4594 21.9749 20.5844 21.1499 21.4844C20.3249 22.3844 19.1999 22.9094 17.9999 22.9094C17.9999 22.9094 17.9249 22.9094 17.8499 22.9094ZM6.5999 3.40942C4.9499 3.40942 3.6749 4.68442 3.5999 6.25942L3.1499 18.4094C3.1499 20.0594 4.4999 21.4094 6.1499 21.4094H17.9999C18.8249 21.4094 19.5749 21.0344 20.0999 20.4344C20.6249 19.8344 20.9249 19.0844 20.9249 18.2594L20.4749 6.25942C20.3999 4.60942 19.1249 3.40942 17.4749 3.40942H6.5999Z" fill="#252525"/>
<path d="M12 10.9094C9.075 10.9094 6.75 8.58442 6.75 5.65942C6.75 5.20942 7.05 4.90942 7.5 4.90942C7.95 4.90942 8.25 5.20942 8.25 5.65942C8.25 7.75942 9.9 9.40942 12 9.40942C14.1 9.40942 15.75 7.75942 15.75 5.65942C15.75 5.20942 16.05 4.90942 16.5 4.90942C16.95 4.90942 17.25 5.20942 17.25 5.65942C17.25 8.58442 14.925 10.9094 12 10.9094Z" fill="#252525"/>
</svg>
