<svg width="19" height="18" viewBox="0 0 19 18" fill="none" xmlns="http://www.w3.org/2000/svg">
<path d="M9.11989 16.9934C9.04598 16.9938 8.97275 16.9799 8.90449 16.9526C8.83623 16.9252 8.77432 16.885 8.72239 16.8343L4.40239 12.6686C3.46818 11.7687 2.83177 10.6218 2.57365 9.37306C2.31554 8.1243 2.44732 6.82977 2.95233 5.65325C3.45735 4.47673 4.31289 3.47107 5.41074 2.76352C6.50859 2.05596 7.7994 1.67829 9.11989 1.67829C10.4404 1.67829 11.7312 2.05596 12.829 2.76352C13.9269 3.47107 14.7824 4.47673 15.2874 5.65325C15.7925 6.82977 15.9242 8.1243 15.6661 9.37306C15.408 10.6218 14.7716 11.7687 13.8374 12.6686L9.51739 16.8343C9.46546 16.885 9.40354 16.9252 9.33528 16.9526C9.26702 16.9799 9.19379 16.9938 9.11989 16.9934ZM9.11989 2.76781C8.02277 2.76855 6.95049 3.08283 6.03851 3.67094C5.12653 4.25906 4.41577 5.09461 3.99602 6.07206C3.57628 7.04951 3.46637 8.125 3.6802 9.16265C3.89403 10.2003 4.42199 11.1536 5.19739 11.902L9.11989 15.6844L13.0424 11.902C13.8178 11.1536 14.3457 10.2003 14.5596 9.16265C14.7734 8.125 14.6635 7.04951 14.2438 6.07206C13.824 5.09461 13.1132 4.25906 12.2013 3.67094C11.2893 3.08283 10.217 2.76855 9.11989 2.76781Z" fill="#252525"/>
<path d="M9.11987 10.5062C8.56361 10.5062 8.01985 10.3471 7.55733 10.0491C7.09482 9.75114 6.73433 9.32758 6.52146 8.83201C6.30859 8.33645 6.25289 7.79115 6.36142 7.26506C6.46994 6.73897 6.7378 6.25573 7.13114 5.87644C7.52447 5.49716 8.02561 5.23886 8.57118 5.13421C9.11676 5.02957 9.68225 5.08328 10.1962 5.28854C10.7101 5.49381 11.1493 5.84142 11.4584 6.28742C11.7674 6.73341 11.9324 7.25776 11.9324 7.79415C11.9324 8.51344 11.6361 9.20326 11.1086 9.71187C10.5812 10.2205 9.8658 10.5062 9.11987 10.5062ZM9.11987 6.16692C8.78612 6.16692 8.45986 6.26236 8.18235 6.44116C7.90484 6.61996 7.68855 6.8741 7.56083 7.17144C7.43311 7.46878 7.39969 7.79596 7.4648 8.11161C7.52991 8.42726 7.69063 8.71721 7.92663 8.94478C8.16263 9.17235 8.46332 9.32733 8.79066 9.39012C9.118 9.45291 9.4573 9.42068 9.76565 9.29752C10.074 9.17436 10.3376 8.96579 10.523 8.6982C10.7084 8.4306 10.8074 8.11599 10.8074 7.79415C10.8074 7.36259 10.6296 6.94869 10.3131 6.64353C9.99665 6.33836 9.56743 6.16692 9.11987 6.16692Z" fill="#252525"/>
</svg>
