<svg width="24" height="24" viewBox="0 0 24 24" fill="none" xmlns="http://www.w3.org/2000/svg">
<g clip-path="url(#clip0_5_654)">
<path d="M2.02628 5.24072C2.78955 5.24072 3.95263 5.24072 4.60686 5.24072C4.93397 5.24072 5.1884 5.4588 5.29743 5.74957C5.62455 6.69457 6.35147 8.7663 7.18744 10.1838C8.31417 12.0375 9.04109 12.728 9.51359 12.6553C9.98609 12.5463 9.8407 11.3105 9.8407 10.3292C9.8407 9.34784 9.94974 7.67592 9.47724 6.91265L8.75032 5.85861C8.56859 5.60418 8.75032 5.27707 9.04109 5.27707H13.1846C13.5844 5.27707 13.9115 5.60418 13.9115 6.00399V11.2742C13.9115 11.2742 14.0932 12.2192 15.1109 11.2378C16.1286 10.2565 17.219 8.43918 18.1276 6.58553L18.4911 5.71322C18.6001 5.4588 18.8545 5.27707 19.1453 5.27707H21.8349C22.3438 5.27707 22.7072 5.78592 22.5255 6.25842L22.2347 7.02168C22.2347 7.02168 21.2534 8.98438 20.2357 10.3655C19.218 11.783 18.9999 12.1101 19.1453 12.4736C19.2907 12.8371 21.9076 15.2723 22.5619 16.4353C22.7436 16.7625 22.889 17.0532 23.0344 17.3076C23.2888 17.7801 22.9253 18.398 22.3801 18.398H19.327C19.0726 18.398 18.8182 18.2526 18.7092 18.0346L18.4184 17.5621C18.4184 17.5621 16.5647 15.3813 15.438 14.6907C14.2749 14.0365 14.3113 14.9815 14.3113 14.9815V16.9078C14.3113 17.7075 13.657 18.3617 12.8574 18.3617H12.1305C12.1305 18.3617 8.13243 18.3617 4.93397 13.6003C2.42609 9.89303 1.59013 7.49418 1.29936 6.11303C1.22667 5.67688 1.55378 5.24072 2.02628 5.24072Z" fill="#5181B8"/>
</g>
<defs>
<clipPath id="clip0_5_654">
<rect width="23.2615" height="23.2615" fill="white" transform="translate(0.572449 0.188477)"/>
</clipPath>
</defs>
</svg>
