<svg width="24" height="24" viewBox="0 0 24 24" fill="none" xmlns="http://www.w3.org/2000/svg">
<g clip-path="url(#clip0_5_668)">
<path d="M18.4457 4.29862C16.491 2.33938 13.888 1.26172 11.1216 1.26172C5.41174 1.26172 0.765428 5.90807 0.765428 11.6179C0.765428 13.4418 1.24129 15.2239 2.14631 16.796L0.67688 22.1607L6.16751 20.7192C7.67897 21.5448 9.3816 21.9788 11.117 21.9788H11.1217C16.8269 21.9788 21.5758 17.3324 21.5758 11.6226C21.5757 8.85625 20.4003 6.25791 18.4457 4.29862Z" fill="#2CB742"/>
<path d="M11.1216 20.2342C9.57288 20.2342 8.05674 19.819 6.73656 19.0353L6.42403 18.8487L3.16787 19.7023L4.03558 16.5255L3.83032 16.199C2.96733 14.8275 2.51477 13.2461 2.51477 11.618C2.51477 6.87374 6.37737 3.01123 11.1263 3.01123C13.4261 3.01123 15.5859 3.90689 17.2094 5.53493C18.8327 7.16301 19.8311 9.32292 19.8264 11.6227C19.8264 16.3717 15.8658 20.2342 11.1216 20.2342Z" fill="#FBFBFB"/>
<path d="M15.8425 13.7869C15.586 13.6564 14.3125 13.0311 14.0746 12.9473C13.8366 12.8586 13.6641 12.8167 13.4915 13.0779C13.3189 13.3391 12.8244 13.9175 12.6704 14.0949C12.5211 14.2675 12.3672 14.2908 12.1106 14.1602C10.5898 13.3998 9.59158 12.8027 8.5886 11.0813C8.32269 10.6241 8.85457 10.6568 9.34897 9.66787C9.43302 9.49518 9.39104 9.34593 9.32561 9.21531C9.26037 9.0847 8.74253 7.81117 8.52795 7.29333C8.31805 6.78953 8.10347 6.85949 7.94482 6.85018C7.79558 6.84082 7.62289 6.84082 7.45038 6.84082C7.27774 6.84082 6.99787 6.90615 6.75994 7.16271C6.52205 7.42395 5.85492 8.0491 5.85492 9.32263C5.85492 10.5961 6.7832 11.8277 6.90919 12.0003C7.03976 12.1728 8.73322 14.7853 11.3315 15.9095C12.9736 16.6186 13.6174 16.6792 14.4385 16.5579C14.9376 16.4833 15.9686 15.9328 16.1831 15.3264C16.3977 14.72 16.3977 14.2022 16.3324 14.0949C16.2718 13.9782 16.0991 13.9129 15.8425 13.7869Z" fill="#2CB742"/>
</g>
<defs>
<clipPath id="clip0_5_668">
<rect width="23.2615" height="23.2615" fill="white" transform="translate(0.60321 0.0805664)"/>
</clipPath>
</defs>
</svg>
